<svg version="1.1" xmlns="http://www.w3.org/2000/svg" xmlns:xlink="http://www.w3.org/1999/xlink" width="1904" height="947"><defs><clipPath id="NRdesPWOmmbF"><path fill="none" stroke="none" d=" M 0 0 L 1904 0 L 1904 947 L 0 947 L 0 0 Z"/></clipPath></defs><g transform="scale(1,1)" clip-path="url(#NRdesPWOmmbF)"><g><rect fill="rgb(255,255,255)" stroke="none" x="0" y="0" width="1904" height="947" fill-opacity="1"/><path fill="rgb(204,0,0)" stroke="none" paint-order="stroke fill markers" d=" M 883.1144511446435 460.9522841609798 C 883.1144511446435 689.7671178652738 697.6233787481497 875.2581902617683 468.8085450438566 875.2581902617683 C 239.99371133956342 875.2581902617683 54.502638943069826 689.7671178652738 54.502638943069826 460.9522841609798 C 54.502638943069826 232.13745045668568 239.99371133956342 46.64637806019135 468.8085450438566 46.64637806019135 C 697.6233787481497 46.64637806019135 883.1144511446435 232.13745045668568 883.1144511446435 460.9522841609798 Z" fill-opacity="0.24705882352941178"/><path fill="none" stroke="rgb(204,0,0)" paint-order="fill stroke markers" d=" M 883.1144511446435 460.9522841609798 C 883.1144511446435 689.7671178652738 697.6233787481497 875.2581902617683 468.8085450438566 875.2581902617683 C 239.99371133956342 875.2581902617683 54.502638943069826 689.7671178652738 54.502638943069826 460.9522841609798 C 54.502638943069826 232.13745045668568 239.99371133956342 46.64637806019135 468.8085450438566 46.64637806019135 C 697.6233787481497 46.64637806019135 883.1144511446435 232.13745045668568 883.1144511446435 460.9522841609798 Z" stroke-opacity="0.6980392156862745" stroke-linecap="round" stroke-linejoin="round" stroke-miterlimit="10" stroke-width="2.5"/><path fill="rgb(0,100,0)" stroke="none" paint-order="stroke fill markers" d=" M 776.6292445877218 460.9522841609798 C 776.6292445877218 630.9569622013039 638.81322308418 768.7729837048463 468.8085450438566 768.7729837048463 C 298.8038670035332 768.7729837048463 160.98784549999135 630.9569622013039 160.98784549999135 460.9522841609798 C 160.98784549999135 290.9476061206557 298.8038670035332 153.13158461711328 468.8085450438566 153.13158461711328 C 638.81322308418 153.13158461711328 776.6292445877218 290.9476061206557 776.6292445877218 460.9522841609798 Z" fill-opacity="0.24705882352941178"/><path fill="none" stroke="rgb(0,100,0)" paint-order="fill stroke markers" d=" M 776.6292445877218 460.9522841609798 C 776.6292445877218 630.9569622013039 638.81322308418 768.7729837048463 468.8085450438566 768.7729837048463 C 298.8038670035332 768.7729837048463 160.98784549999135 630.9569622013039 160.98784549999135 460.9522841609798 C 160.98784549999135 290.9476061206557 298.8038670035332 153.13158461711328 468.8085450438566 153.13158461711328 C 638.81322308418 153.13158461711328 776.6292445877218 290.9476061206557 776.6292445877218 460.9522841609798 Z" stroke-opacity="0.6980392156862745" stroke-linecap="round" stroke-linejoin="round" stroke-miterlimit="10" stroke-width="2.5"/><path fill="rgb(204,0,0)" stroke="none" paint-order="stroke fill markers" d=" M 655.2355108194221 607.2060156859178 C 655.2355108194221 647.3427926532689 622.698224308381 679.8800791643101 582.5614473410301 679.8800791643101 C 542.4246703736792 679.8800791643101 509.88738386263805 647.3427926532689 509.88738386263805 607.2060156859178 C 509.88738386263805 567.0692387185667 542.4246703736792 534.5319522075255 582.5614473410301 534.5319522075255 C 622.698224308381 534.5319522075255 655.2355108194221 567.0692387185667 655.2355108194221 607.2060156859178 Z" fill-opacity="0.24705882352941178"/><path fill="none" stroke="rgb(204,0,0)" paint-order="fill stroke markers" d=" M 655.2355108194221 607.2060156859178 C 655.2355108194221 647.3427926532689 622.698224308381 679.8800791643101 582.5614473410301 679.8800791643101 C 542.4246703736792 679.8800791643101 509.88738386263805 647.3427926532689 509.88738386263805 607.2060156859178 C 509.88738386263805 567.0692387185667 542.4246703736792 534.5319522075255 582.5614473410301 534.5319522075255 C 622.698224308381 534.5319522075255 655.2355108194221 567.0692387185667 655.2355108194221 607.2060156859178 Z" stroke-opacity="0.6980392156862745" stroke-linecap="round" stroke-linejoin="round" stroke-miterlimit="10" stroke-width="2.5"/><path fill="rgb(0,100,0)" stroke="none" paint-order="stroke fill markers" d=" M 1801.0944637337989 468.04429150822 C 1801.0944637337989 692.4156957500823 1619.2055026286116 874.30465685527 1394.8340983867504 874.30465685527 C 1170.4626941448892 874.30465685527 988.573733039702 692.4156957500823 988.573733039702 468.04429150822 C 988.573733039702 243.67288726635778 1170.4626941448892 61.78392616116997 1394.8340983867504 61.78392616116997 C 1619.2055026286116 61.78392616116997 1801.0944637337989 243.67288726635778 1801.0944637337989 468.04429150822 Z" fill-opacity="0.24705882352941178"/><path fill="none" stroke="rgb(0,100,0)" paint-order="fill stroke markers" d=" M 1801.0944637337989 468.04429150822 C 1801.0944637337989 692.4156957500823 1619.2055026286116 874.30465685527 1394.8340983867504 874.30465685527 C 1170.4626941448892 874.30465685527 988.573733039702 692.4156957500823 988.573733039702 468.04429150822 C 988.573733039702 243.67288726635778 1170.4626941448892 61.78392616116997 1394.8340983867504 61.78392616116997 C 1619.2055026286116 61.78392616116997 1801.0944637337989 243.67288726635778 1801.0944637337989 468.04429150822 Z" stroke-opacity="0.6980392156862745" stroke-linecap="round" stroke-linejoin="round" stroke-miterlimit="10" stroke-width="2.5"/><path fill="none" stroke="rgb(0,100,0)" paint-order="fill stroke markers" d=" M 988.5737330397014 468.04429150821977 C 1250.1295834286045 568.3356133478086 1539.5386133448949 568.3356133478088 1801.094463733798 468.0442915082202" stroke-opacity="0.6980392156862745" stroke-linecap="round" stroke-linejoin="round" stroke-miterlimit="10" stroke-width="2.5"/><path fill="rgb(204,0,0)" stroke="none" paint-order="stroke fill markers" d=" M 1642.2689012219837 249.69689418051382 C 1642.2689012219837 314.41550239986526 1589.8041031655334 366.8803004563157 1525.0854949461823 366.8803004563157 C 1460.3668867268311 366.8803004563157 1407.9020886703809 314.41550239986526 1407.9020886703809 249.69689418051382 C 1407.9020886703809 184.97828596116238 1460.3668867268311 132.51348790471198 1525.0854949461823 132.51348790471198 C 1589.8041031655334 132.51348790471198 1642.2689012219837 184.97828596116238 1642.2689012219837 249.69689418051382 Z" fill-opacity="0.24705882352941178"/><path fill="none" stroke="rgb(204,0,0)" paint-order="fill stroke markers" d=" M 1642.2689012219837 249.69689418051382 C 1642.2689012219837 314.41550239986526 1589.8041031655334 366.8803004563157 1525.0854949461823 366.8803004563157 C 1460.3668867268311 366.8803004563157 1407.9020886703809 314.41550239986526 1407.9020886703809 249.69689418051382 C 1407.9020886703809 184.97828596116238 1460.3668867268311 132.51348790471198 1525.0854949461823 132.51348790471198 C 1589.8041031655334 132.51348790471198 1642.2689012219837 184.97828596116238 1642.2689012219837 249.69689418051382 Z" stroke-opacity="0.6980392156862745" stroke-linecap="round" stroke-linejoin="round" stroke-miterlimit="10" stroke-width="2.5"/><path fill="rgb(204,0,0)" stroke="none" paint-order="stroke fill markers" d=" M 1625.2250618897806 720.9589179830917 C 1625.2250618897806 749.3399051516777 1602.217725956414 772.3472410850446 1573.8367387878282 772.3472410850446 C 1545.4557516192422 772.3472410850446 1522.4484156858755 749.3399051516777 1522.4484156858755 720.9589179830917 C 1522.4484156858755 692.5779308145057 1545.4557516192422 669.570594881139 1573.8367387878282 669.570594881139 C 1602.217725956414 669.570594881139 1625.2250618897806 692.5779308145057 1625.2250618897806 720.9589179830917 Z" fill-opacity="0.24705882352941178"/><path fill="none" stroke="rgb(204,0,0)" paint-order="fill stroke markers" d=" M 1625.2250618897806 720.9589179830917 C 1625.2250618897806 749.3399051516777 1602.217725956414 772.3472410850446 1573.8367387878282 772.3472410850446 C 1545.4557516192422 772.3472410850446 1522.4484156858755 749.3399051516777 1522.4484156858755 720.9589179830917 C 1522.4484156858755 692.5779308145057 1545.4557516192422 669.570594881139 1573.8367387878282 669.570594881139 C 1602.217725956414 669.570594881139 1625.2250618897806 692.5779308145057 1625.2250618897806 720.9589179830917 Z" stroke-opacity="0.6980392156862745" stroke-linecap="round" stroke-linejoin="round" stroke-miterlimit="10" stroke-width="2.5"/><path fill="none" stroke="rgb(0,0,0)" paint-order="fill stroke markers" d=" M 793.8168373214952 135.94399188333978 L 1037.5730565297242 135.94399188333978" stroke-opacity="0.6980392156862745" stroke-linecap="round" stroke-linejoin="round" stroke-miterlimit="10" stroke-width="2.5"/><path fill="rgb(204,0,0)" stroke="none" paint-order="stroke fill markers" d=" M 1530.0854949461823 249.69689418051382 C 1530.0854949461823 252.4583179296678 1527.8469186953362 254.69689418051382 1525.0854949461823 254.69689418051382 C 1522.3240711970284 254.69689418051382 1520.0854949461823 252.4583179296678 1520.0854949461823 249.69689418051382 C 1520.0854949461823 246.93547043135985 1522.3240711970284 244.69689418051382 1525.0854949461823 244.69689418051382 C 1527.8469186953362 244.69689418051382 1530.0854949461823 246.93547043135985 1530.0854949461823 249.69689418051382 Z" fill-opacity="1"/><path fill="none" stroke="rgb(0,0,0)" paint-order="fill stroke markers" d=" M 1530.0854949461823 249.69689418051382 C 1530.0854949461823 252.4583179296678 1527.8469186953362 254.69689418051382 1525.0854949461823 254.69689418051382 C 1522.3240711970284 254.69689418051382 1520.0854949461823 252.4583179296678 1520.0854949461823 249.69689418051382 C 1520.0854949461823 246.93547043135985 1522.3240711970284 244.69689418051382 1525.0854949461823 244.69689418051382 C 1527.8469186953362 244.69689418051382 1530.0854949461823 246.93547043135985 1530.0854949461823 249.69689418051382 Z" stroke-opacity="1" stroke-linecap="round" stroke-linejoin="round" stroke-miterlimit="10"/><path fill="rgb(204,0,0)" stroke="none" paint-order="stroke fill markers" d=" M 1578.8367387878282 720.9589179830917 C 1578.8367387878282 723.7203417322457 1576.598162536982 725.9589179830917 1573.8367387878282 725.9589179830917 C 1571.0753150386743 725.9589179830917 1568.8367387878282 723.7203417322457 1568.8367387878282 720.9589179830917 C 1568.8367387878282 718.1974942339377 1571.0753150386743 715.9589179830917 1573.8367387878282 715.9589179830917 C 1576.598162536982 715.9589179830917 1578.8367387878282 718.1974942339377 1578.8367387878282 720.9589179830917 Z" fill-opacity="1"/><path fill="none" stroke="rgb(0,0,0)" paint-order="fill stroke markers" d=" M 1578.8367387878282 720.9589179830917 C 1578.8367387878282 723.7203417322457 1576.598162536982 725.9589179830917 1573.8367387878282 725.9589179830917 C 1571.0753150386743 725.9589179830917 1568.8367387878282 723.7203417322457 1568.8367387878282 720.9589179830917 C 1568.8367387878282 718.1974942339377 1571.0753150386743 715.9589179830917 1573.8367387878282 715.9589179830917 C 1576.598162536982 715.9589179830917 1578.8367387878282 718.1974942339377 1578.8367387878282 720.9589179830917 Z" stroke-opacity="1" stroke-linecap="round" stroke-linejoin="round" stroke-miterlimit="10"/><path fill="none" stroke="rgb(0,0,0)" paint-order="fill stroke markers" d=" M 1042.5730565297242 135.94399188333978 L 1035.0730565297242 140.27411890226196 L 1035.0730565297242 131.6138648644176 L 1042.5730565297242 135.94399188333978 Z" stroke-opacity="1" stroke-linecap="square" stroke-miterlimit="10" stroke-width="2.5"/><path fill="rgb(0,0,0)" stroke="none" paint-order="stroke fill markers" fill-rule="evenodd" d=" M 1042.5730565297242 135.94399188333978 L 1035.0730565297242 140.27411890226196 L 1035.0730565297242 131.6138648644176 L 1042.5730565297242 135.94399188333978 Z" fill-opacity="1"/><g transform="scale(19,19)"><g transform="translate(47.68421052631579,6.273105263157895)"><path fill="rgb(0,0,0)" stroke="none" paint-order="stroke fill markers" d=" M 0.045 0.122 L 0.045 0.122 L 0.157 -0.323 Q 0.164 -0.353 0.164 -0.374 Q 0.164 -0.42 0.133 -0.42 Q 0.092 -0.42 0.066 -0.325 Q 0.063 -0.314 0.06 -0.301 Q 0.049 -0.279 0.043000000000000003 -0.278 Q 0.031 -0.278 0.031 -0.28800000000000003 Q 0.031 -0.304 0.049 -0.355 Q 0.056 -0.373 0.062 -0.385 Q 0.08600000000000001 -0.434 0.122 -0.441 Q 0.129 -0.442 0.136 -0.442 Q 0.19 -0.442 0.215 -0.398 L 0.215 -0.397 Q 0.223 -0.384 0.226 -0.367 Q 0.289 -0.442 0.357 -0.442 Q 0.428 -0.442 0.466 -0.378 Q 0.488 -0.333 0.49 -0.28200000000000003 Q 0.49 -0.17400000000000002 0.41400000000000003 -0.082 Q 0.34500000000000003 0.002 0.263 0.01 Q 0.256 0.011 0.249 0.011 Q 0.186 0.011 0.157 -0.053 Q 0.12 0.079 0.109 0.14100000000000001 Q 0.108 0.146 0.108 0.147 Q 0.108 0.158 0.121 0.161 L 0.122 0.161 L 0.122 0.161 Q 0.134 0.163 0.158 0.163 Q 0.18 0.163 0.182 0.17400000000000002 Q 0.182 0.194 0.164 0.194 L 0.066 0.191 L 0.065 0.191 L -0.017 0.194 L -0.019 0.194 Q -0.032 0.194 -0.032 0.182 Q -0.026000000000000002 0.164 -0.009000000000000001 0.163 Q 0.028 0.163 0.036000000000000004 0.15 L 0.037 0.149 Q 0.039 0.145 0.041 0.138 Q 0.042 0.133 0.045 0.122 M 0.221 -0.312 L 0.221 -0.312 L 0.17200000000000001 -0.116 Q 0.169 -0.10400000000000001 0.169 -0.1 Q 0.169 -0.077 0.187 -0.048 Q 0.198 -0.029 0.215 -0.019 Q 0.23 -0.011 0.248 -0.011 Q 0.299 -0.011 0.34400000000000003 -0.075 Q 0.357 -0.093 0.367 -0.114 Q 0.394 -0.171 0.41200000000000003 -0.268 Q 0.418 -0.303 0.418 -0.326 Q 0.418 -0.405 0.37 -0.418 Q 0.362 -0.42 0.354 -0.42 Q 0.316 -0.42 0.273 -0.382 Q 0.23 -0.34600000000000003 0.221 -0.312 Z"/></g></g></g></g></svg>