<svg version="1.1" xmlns="http://www.w3.org/2000/svg" xmlns:xlink="http://www.w3.org/1999/xlink" width="1904" height="947"><defs><clipPath id="BxxAkzmVqFfl"><path fill="none" stroke="none" d=" M 0 0 L 1904 0 L 1904 947 L 0 947 L 0 0 Z"/></clipPath></defs><g transform="scale(1,1)" clip-path="url(#BxxAkzmVqFfl)"><g><rect fill="rgb(255,255,255)" stroke="none" x="0" y="0" width="1904" height="947" fill-opacity="1"/><path fill="rgb(204,0,0)" stroke="none" paint-order="stroke fill markers" fill-rule="evenodd" d=" M 353.4524910018488 385.34783378190247 L 353.4524910018488 419.73405864071015 L 319.0662661430413 419.73405864071015 Z" fill-opacity="0.24705882352941178"/><path fill="rgb(204,0,0)" stroke="none" paint-order="stroke fill markers" fill-rule="evenodd" d=" M 124.21099194313229 419.73405864071015 L 158.5972168019398 419.73405864071015 L 124.21099194313229 385.34783378190184 Z" fill-opacity="0.24705882352941178"/><path fill="rgb(204,0,0)" stroke="none" paint-order="stroke fill markers" fill-rule="evenodd" d=" M 124.21099194313229 190.4925595819924 L 158.5972168019398 190.4925595819924 L 124.21099194313229 224.87878444080008 Z" fill-opacity="0.24705882352941178"/><path fill="rgb(204,0,0)" stroke="none" paint-order="stroke fill markers" fill-rule="evenodd" d=" M 319.0662661430413 190.4925595819924 L 353.4524910018488 190.4925595819924 L 353.4524910018488 224.87878444080008 Z" fill-opacity="0.24705882352941178"/><path fill="none" stroke="rgb(0,0,0)" paint-order="fill stroke markers" d=" M 1826.7992929001857 419.73405864071015 C 1826.7992929001857 278.18359457561235 1654.675307628398 163.43427106108663 1442.3496115307523 163.43427106108663 C 1230.0239154331066 163.43427106108663 1057.899930161319 278.18359457561235 1057.899930161319 419.73405864071015 C 1057.899930161319 561.2845227058081 1230.0239154331066 676.0338462203337 1442.3496115307523 676.0338462203337 C 1654.675307628398 676.0338462203337 1826.7992929001857 561.2845227058081 1826.7992929001857 419.73405864071015 Z" stroke-opacity="0.6980392156862745" stroke-linecap="round" stroke-linejoin="round" stroke-miterlimit="10" stroke-width="2.5"/><path fill="none" stroke="rgb(0,0,0)" paint-order="fill stroke markers" d=" M 1184.4529250896962 419.73405864071003 C 1246.0238004708706 499.8353300418265 1341.3189905523614 546.7799526611583 1442.3496115307526 546.7799526611584 C 1543.3802325091438 546.7799526611584 1638.6754225906343 499.8353300418266 1700.2462979718086 419.73405864071026" stroke-opacity="0.6980392156862745" stroke-linecap="round" stroke-linejoin="round" stroke-miterlimit="10" stroke-width="2.5"/><path fill="none" stroke="rgb(0,0,0)" paint-order="fill stroke markers" d=" M 1671.591110589469 419.7340586407101 C 1619.79190614315 344.1007861271909 1534.0204874531291 298.88457751433936 1442.3496115307526 298.88457751433936 C 1350.678735608376 298.88457751433936 1264.907316918355 344.1007861271909 1213.108112472036 419.7340586407101" stroke-opacity="0.6980392156862745" stroke-linecap="round" stroke-linejoin="round" stroke-miterlimit="10" stroke-width="2.5"/><path fill="rgb(204,0,0)" stroke="none" paint-order="stroke fill markers" d=" M 124.21099194313229 224.87878444080002 C 143.20197953690416 224.87878444080002 158.59721680193974 209.4835471757644 158.59721680193974 190.4925595819924" fill-opacity="0.24705882352941178"/><path fill="none" stroke="rgb(204,0,0)" paint-order="fill stroke markers" d=" M 124.21099194313229 224.87878444080002 C 143.20197953690416 224.87878444080002 158.59721680193974 209.4835471757644 158.59721680193974 190.4925595819924" stroke-opacity="0.6980392156862745" stroke-linecap="round" stroke-linejoin="round" stroke-miterlimit="10" stroke-width="2.5"/><path fill="rgb(204,0,0)" stroke="none" paint-order="stroke fill markers" d=" M 319.0662661430412 190.4925595819924 C 319.0662661430412 209.48354717576444 334.46150340807685 224.87878444080013 353.4524910018488 224.87878444080013" fill-opacity="0.24705882352941178"/><path fill="none" stroke="rgb(204,0,0)" paint-order="fill stroke markers" d=" M 319.0662661430412 190.4925595819924 C 319.0662661430412 209.48354717576444 334.46150340807685 224.87878444080013 353.4524910018488 224.87878444080013" stroke-opacity="0.6980392156862745" stroke-linecap="round" stroke-linejoin="round" stroke-miterlimit="10" stroke-width="2.5"/><path fill="rgb(204,0,0)" stroke="none" paint-order="stroke fill markers" d=" M 158.59721680193985 419.73405864071015 C 158.59721680193985 400.7430710469381 143.20197953690422 385.3478337819024 124.21099194313229 385.3478337819024" fill-opacity="0.24705882352941178"/><path fill="none" stroke="rgb(204,0,0)" paint-order="fill stroke markers" d=" M 158.59721680193985 419.73405864071015 C 158.59721680193985 400.7430710469381 143.20197953690422 385.3478337819024 124.21099194313229 385.3478337819024" stroke-opacity="0.6980392156862745" stroke-linecap="round" stroke-linejoin="round" stroke-miterlimit="10" stroke-width="2.5"/><path fill="rgb(204,0,0)" stroke="none" paint-order="stroke fill markers" d=" M 353.4524910018488 385.34783378190247 C 334.4615034080769 385.34783378190247 319.0662661430413 400.74307104693816 319.0662661430413 419.73405864071015" fill-opacity="0.24705882352941178"/><path fill="none" stroke="rgb(204,0,0)" paint-order="fill stroke markers" d=" M 353.4524910018488 385.34783378190247 C 334.4615034080769 385.34783378190247 319.0662661430413 400.74307104693816 319.0662661430413 419.73405864071015" stroke-opacity="0.6980392156862745" stroke-linecap="round" stroke-linejoin="round" stroke-miterlimit="10" stroke-width="2.5"/><path fill="rgb(204,0,0)" stroke="none" paint-order="stroke fill markers" d=" M 554.0388026782257 190.4925595819924 C 554.0388026782257 206.31838257680238 566.8681670657554 219.1477469643321 582.6939900605653 219.1477469643321 C 598.5198130553752 219.1477469643321 611.3491774429049 206.3183825768024 611.3491774429049 190.4925595819924" fill-opacity="0.24705882352941178"/><path fill="none" stroke="rgb(204,0,0)" paint-order="fill stroke markers" d=" M 554.0388026782257 190.4925595819924 C 554.0388026782257 206.31838257680238 566.8681670657554 219.1477469643321 582.6939900605653 219.1477469643321 C 598.5198130553752 219.1477469643321 611.3491774429049 206.3183825768024 611.3491774429049 190.4925595819924" stroke-opacity="0.6980392156862745" stroke-linecap="round" stroke-linejoin="round" stroke-miterlimit="10" stroke-width="2.5"/><path fill="rgb(204,0,0)" stroke="none" paint-order="stroke fill markers" d=" M 611.3491774429049 419.73405864071015 C 611.3491774429049 403.90823564590016 598.5198130553752 391.07887125837044 582.6939900605653 391.07887125837044 C 566.8681670657554 391.07887125837044 554.0388026782257 403.90823564590016 554.0388026782257 419.73405864071015" fill-opacity="0.24705882352941178"/><path fill="none" stroke="rgb(204,0,0)" paint-order="fill stroke markers" d=" M 611.3491774429049 419.73405864071015 C 611.3491774429049 403.90823564590016 598.5198130553752 391.07887125837044 582.6939900605653 391.07887125837044 C 566.8681670657554 391.07887125837044 554.0388026782257 403.90823564590016 554.0388026782257 419.73405864071015" stroke-opacity="0.6980392156862745" stroke-linecap="round" stroke-linejoin="round" stroke-miterlimit="10" stroke-width="2.5"/><path fill="rgb(204,0,0)" stroke="none" paint-order="stroke fill markers" d=" M 124.21099194313229 677.6307450817675 C 140.03681493794218 677.6307450817675 152.86617932547185 664.8013806942378 152.86617932547185 648.9755576994278 C 152.86617932547188 633.1497347046178 140.0368149379422 620.3203703170881 124.2109919431323 620.3203703170881" fill-opacity="0.24705882352941178"/><path fill="none" stroke="rgb(204,0,0)" paint-order="fill stroke markers" d=" M 124.21099194313229 677.6307450817675 C 140.03681493794218 677.6307450817675 152.86617932547185 664.8013806942378 152.86617932547185 648.9755576994278 C 152.86617932547188 633.1497347046178 140.0368149379422 620.3203703170881 124.2109919431323 620.3203703170881" stroke-opacity="0.6980392156862745" stroke-linecap="round" stroke-linejoin="round" stroke-miterlimit="10" stroke-width="2.5"/><path fill="rgb(204,0,0)" stroke="none" paint-order="stroke fill markers" d=" M 353.4524910018488 620.3203703170881 C 337.62666800703886 620.3203703170881 324.7973036195092 633.1497347046178 324.7973036195092 648.9755576994278 C 324.7973036195092 664.8013806942378 337.62666800703886 677.6307450817675 353.4524910018488 677.6307450817675" fill-opacity="0.24705882352941178"/><path fill="none" stroke="rgb(204,0,0)" paint-order="fill stroke markers" d=" M 353.4524910018488 620.3203703170881 C 337.62666800703886 620.3203703170881 324.7973036195092 633.1497347046178 324.7973036195092 648.9755576994278 C 324.7973036195092 664.8013806942378 337.62666800703886 677.6307450817675 353.4524910018488 677.6307450817675" stroke-opacity="0.6980392156862745" stroke-linecap="round" stroke-linejoin="round" stroke-miterlimit="10" stroke-width="2.5"/><path fill="rgb(204,0,0)" stroke="none" paint-order="stroke fill markers" d=" M 565.9081699243334 677.6307450817675 C 565.9081699243334 700.0118385967438 547.7647088108625 718.1552997102148 525.3836152958863 718.1552997102148 C 503.0025217809102 718.1552997102148 484.85906066743934 700.0118385967438 484.85906066743934 677.6307450817675 C 484.85906066743934 655.2496515667913 503.0025217809102 637.1061904533203 525.3836152958863 637.1061904533203 C 547.7647088108625 637.1061904533203 565.9081699243334 655.2496515667913 565.9081699243334 677.6307450817675 Z" fill-opacity="0.24705882352941178"/><path fill="none" stroke="rgb(204,0,0)" paint-order="fill stroke markers" d=" M 565.9081699243334 677.6307450817675 C 565.9081699243334 700.0118385967438 547.7647088108625 718.1552997102148 525.3836152958863 718.1552997102148 C 503.0025217809102 718.1552997102148 484.85906066743934 700.0118385967438 484.85906066743934 677.6307450817675 C 484.85906066743934 655.2496515667913 503.0025217809102 637.1061904533203 525.3836152958863 637.1061904533203 C 547.7647088108625 637.1061904533203 565.9081699243334 655.2496515667913 565.9081699243334 677.6307450817675 Z" stroke-opacity="0.6980392156862745" stroke-linecap="round" stroke-linejoin="round" stroke-miterlimit="10" stroke-width="2.5"/><path fill="none" stroke="rgb(0,0,0)" paint-order="fill stroke markers" d=" M 1793.2751803310316 419.73405864071015 C 1793.2751803310316 307.8547739399336 1636.1604515048434 217.1586937857984 1442.3496115307523 217.1586937857984 C 1248.5387715566612 217.1586937857984 1091.424042730473 307.8547739399336 1091.424042730473 419.73405864071015 C 1091.424042730473 531.6133433414868 1248.5387715566612 622.3094234956219 1442.3496115307523 622.3094234956219 C 1636.1604515048434 622.3094234956219 1793.2751803310316 531.6133433414868 1793.2751803310316 419.73405864071015 Z" stroke-opacity="0.6980392156862745" stroke-linecap="round" stroke-linejoin="round" stroke-miterlimit="10" stroke-width="2.5"/><path fill="none" stroke="rgb(0,0,0)" paint-order="fill stroke markers" d=" M 1430.860672682782 546.5769947548705 C 1413.0194795443833 587.0530920090712 1407.9311424952787 632.0035945710428 1416.2731451209563 675.4435947290349" stroke-opacity="0.6980392156862745" stroke-linecap="round" stroke-linejoin="round" stroke-miterlimit="10" stroke-width="2.5"/><path fill="rgb(204,0,0)" stroke="none" paint-order="stroke fill markers" d=" M 1438.26992739679 622.5630048690961 C 1438.7489406692039 612.6388993198595 1427.8888336784107 604.0508871974362 1414.0131995174324 603.3811429173808 C 1400.137565356454 602.7113986373255 1388.5008244022615 610.2135407335124 1388.0218111298477 620.137646282749 C 1387.542797857434 630.0617518319855 1398.402904848227 638.6497639544089 1412.2785390092054 639.3195082344643 C 1426.1541731701839 639.9892525145195 1437.7909141243763 632.4871104183326 1438.26992739679 622.5630048690961 Z" fill-opacity="0.24705882352941178"/><path fill="none" stroke="rgb(204,0,0)" paint-order="fill stroke markers" d=" M 1438.26992739679 622.5630048690961 C 1438.7489406692039 612.6388993198595 1427.8888336784107 604.0508871974362 1414.0131995174324 603.3811429173808 C 1400.137565356454 602.7113986373255 1388.5008244022615 610.2135407335124 1388.0218111298477 620.137646282749 C 1387.542797857434 630.0617518319855 1398.402904848227 638.6497639544089 1412.2785390092054 639.3195082344643 C 1426.1541731701839 639.9892525145195 1437.7909141243763 632.4871104183326 1438.26992739679 622.5630048690961 Z" stroke-opacity="0.6980392156862745" stroke-linecap="round" stroke-linejoin="round" stroke-miterlimit="10" stroke-width="2.5"/><path fill="rgb(204,0,0)" stroke="none" paint-order="stroke fill markers" d=" M 1664.8767825349762 529.6070612716259 C 1658.5464533370523 523.2767320737019 1646.157323136652 525.4023707640783 1637.2048857306615 534.354808170069 C 1628.2524483246711 543.3072455760595 1626.1268096342947 555.6963757764597 1632.4571388322186 562.0267049743837 C 1638.7874680301425 568.3570341723077 1651.1765982305428 566.2313954819313 1660.1290356365332 557.2789580759406 C 1669.0814730425236 548.3265206699501 1671.2071117329 535.9373904695499 1664.8767825349762 529.6070612716259 Z" fill-opacity="0.24705882352941178"/><path fill="none" stroke="rgb(204,0,0)" paint-order="fill stroke markers" d=" M 1664.8767825349762 529.6070612716259 C 1658.5464533370523 523.2767320737019 1646.157323136652 525.4023707640783 1637.2048857306615 534.354808170069 C 1628.2524483246711 543.3072455760595 1626.1268096342947 555.6963757764597 1632.4571388322186 562.0267049743837 C 1638.7874680301425 568.3570341723077 1651.1765982305428 566.2313954819313 1660.1290356365332 557.2789580759406 C 1669.0814730425236 548.3265206699501 1671.2071117329 535.9373904695499 1664.8767825349762 529.6070612716259 Z" stroke-opacity="0.6980392156862745" stroke-linecap="round" stroke-linejoin="round" stroke-miterlimit="10" stroke-width="2.5"/><path fill="rgb(204,0,0)" stroke="none" paint-order="stroke fill markers" d=" M 1458.518599586417 217.29266292536366 C 1458.5453832392577 211.80863729211148 1452.656814498657 207.3340906707992 1445.36611318267 207.29848332209758 C 1438.0754118666832 207.26287597339592 1432.1434182448572 211.679691675878 1432.1166345920167 217.1637173091302 C 1432.089850939176 222.64774294238237 1437.9784196797766 227.12228956369464 1445.2691209957636 227.15789691239627 C 1452.5598223117504 227.19350426109793 1458.4918159335764 222.77668855861586 1458.518599586417 217.29266292536366 Z" fill-opacity="0.24705882352941178"/><path fill="none" stroke="rgb(204,0,0)" paint-order="fill stroke markers" d=" M 1458.518599586417 217.29266292536366 C 1458.5453832392577 211.80863729211148 1452.656814498657 207.3340906707992 1445.36611318267 207.29848332209758 C 1438.0754118666832 207.26287597339592 1432.1434182448572 211.679691675878 1432.1166345920167 217.1637173091302 C 1432.089850939176 222.64774294238237 1437.9784196797766 227.12228956369464 1445.2691209957636 227.15789691239627 C 1452.5598223117504 227.19350426109793 1458.4918159335764 222.77668855861586 1458.518599586417 217.29266292536366 Z" stroke-opacity="0.6980392156862745" stroke-linecap="round" stroke-linejoin="round" stroke-miterlimit="10" stroke-width="2.5"/><path fill="none" stroke="rgb(0,0,0)" paint-order="fill stroke markers" d=" M 353.4524910018488 190.4925595819924 L 124.21099194313229 190.4925595819924" stroke-opacity="0.6980392156862745" stroke-linecap="round" stroke-linejoin="round" stroke-miterlimit="10" stroke-width="2.5"/><path fill="none" stroke="rgb(0,0,0)" paint-order="fill stroke markers" d=" M 353.4524910018488 190.4925595819924 L 353.4524910018488 419.73405864071015" stroke-opacity="0.6980392156862745" stroke-linecap="round" stroke-linejoin="round" stroke-miterlimit="10" stroke-width="2.5"/><path fill="none" stroke="rgb(0,0,0)" paint-order="fill stroke markers" d=" M 124.21099194313229 419.73405864071015 L 353.4524910018488 419.73405864071015" stroke-opacity="0.6980392156862745" stroke-linecap="round" stroke-linejoin="round" stroke-miterlimit="10" stroke-width="2.5"/><path fill="none" stroke="rgb(0,0,0)" paint-order="fill stroke markers" d=" M 124.21099194313229 419.73405864071015 L 124.21099194313229 190.4925595819924" stroke-opacity="0.6980392156862745" stroke-linecap="round" stroke-linejoin="round" stroke-miterlimit="10" stroke-width="2.5"/><path fill="none" stroke="rgb(0,0,0)" paint-order="fill stroke markers" d=" M 468.07324053120715 190.4925595819924 L 697.3147395899236 190.4925595819924" stroke-opacity="0.6980392156862745" stroke-linecap="round" stroke-linejoin="round" stroke-miterlimit="10" stroke-width="2.5"/><path fill="none" stroke="rgb(0,0,0)" paint-order="fill stroke markers" d=" M 697.3147395899236 190.4925595819924 L 697.3147395899236 419.73405864071015" stroke-opacity="0.6980392156862745" stroke-linecap="round" stroke-linejoin="round" stroke-miterlimit="10" stroke-width="2.5"/><path fill="none" stroke="rgb(0,0,0)" paint-order="fill stroke markers" d=" M 697.3147395899236 419.73405864071015 L 468.07324053120715 419.73405864071015" stroke-opacity="0.6980392156862745" stroke-linecap="round" stroke-linejoin="round" stroke-miterlimit="10" stroke-width="2.5"/><path fill="none" stroke="rgb(0,0,0)" paint-order="fill stroke markers" d=" M 468.07324053120715 419.73405864071015 L 468.07324053120715 190.4925595819924" stroke-opacity="0.6980392156862745" stroke-linecap="round" stroke-linejoin="round" stroke-miterlimit="10" stroke-width="2.5"/><path fill="none" stroke="rgb(0,0,0)" paint-order="fill stroke markers" d=" M 124.21099194313229 534.354808170069 L 353.4524910018488 534.354808170069" stroke-opacity="0.6980392156862745" stroke-linecap="round" stroke-linejoin="round" stroke-miterlimit="10" stroke-width="2.5"/><path fill="none" stroke="rgb(0,0,0)" paint-order="fill stroke markers" d=" M 353.4524910018488 534.354808170069 L 353.4524910018488 763.5963072287866" stroke-opacity="0.6980392156862745" stroke-linecap="round" stroke-linejoin="round" stroke-miterlimit="10" stroke-width="2.5"/><path fill="none" stroke="rgb(0,0,0)" paint-order="fill stroke markers" d=" M 124.21099194313229 763.5963072287866 L 353.4524910018488 763.5963072287866" stroke-opacity="0.6980392156862745" stroke-linecap="round" stroke-linejoin="round" stroke-miterlimit="10" stroke-width="2.5"/><path fill="none" stroke="rgb(0,0,0)" paint-order="fill stroke markers" d=" M 124.21099194313229 763.5963072287866 L 124.21099194313229 534.354808170069" stroke-opacity="0.6980392156862745" stroke-linecap="round" stroke-linejoin="round" stroke-miterlimit="10" stroke-width="2.5"/><path fill="none" stroke="rgb(0,0,0)" paint-order="fill stroke markers" d=" M 468.07324053120715 534.354808170069 L 697.3147395899236 534.354808170069" stroke-opacity="0.6980392156862745" stroke-linecap="round" stroke-linejoin="round" stroke-miterlimit="10" stroke-width="2.5"/><path fill="none" stroke="rgb(0,0,0)" paint-order="fill stroke markers" d=" M 697.3147395899236 534.354808170069 L 697.3147395899236 763.5963072287866" stroke-opacity="0.6980392156862745" stroke-linecap="round" stroke-linejoin="round" stroke-miterlimit="10" stroke-width="2.5"/><path fill="none" stroke="rgb(0,0,0)" paint-order="fill stroke markers" d=" M 468.07324053120715 763.5963072287866 L 697.3147395899236 763.5963072287866" stroke-opacity="0.6980392156862745" stroke-linecap="round" stroke-linejoin="round" stroke-miterlimit="10" stroke-width="2.5"/><path fill="none" stroke="rgb(0,0,0)" paint-order="fill stroke markers" d=" M 468.07324053120715 763.5963072287866 L 468.07324053120715 534.354808170069" stroke-opacity="0.6980392156862745" stroke-linecap="round" stroke-linejoin="round" stroke-miterlimit="10" stroke-width="2.5"/><path fill="none" stroke="rgb(204,0,0)" paint-order="fill stroke markers" d=" M 353.4524910018488 385.34783378190247 L 353.4524910018488 419.73405864071015" stroke-opacity="0.6980392156862745" stroke-linecap="round" stroke-linejoin="round" stroke-miterlimit="10" stroke-width="2.5"/><path fill="none" stroke="rgb(204,0,0)" paint-order="fill stroke markers" d=" M 353.4524910018488 419.73405864071015 L 319.0662661430413 419.73405864071015" stroke-opacity="0.6980392156862745" stroke-linecap="round" stroke-linejoin="round" stroke-miterlimit="10" stroke-width="2.5"/><path fill="none" stroke="rgb(204,0,0)" paint-order="fill stroke markers" d=" M 124.21099194313229 419.73405864071015 L 158.5972168019398 419.73405864071015" stroke-opacity="0.6980392156862745" stroke-linecap="round" stroke-linejoin="round" stroke-miterlimit="10" stroke-width="2.5"/><path fill="none" stroke="rgb(204,0,0)" paint-order="fill stroke markers" d=" M 124.21099194313229 385.34783378190184 L 124.21099194313229 419.73405864071015" stroke-opacity="0.6980392156862745" stroke-linecap="round" stroke-linejoin="round" stroke-miterlimit="10" stroke-width="2.5"/><path fill="none" stroke="rgb(204,0,0)" paint-order="fill stroke markers" d=" M 124.21099194313229 190.4925595819924 L 158.5972168019398 190.4925595819924" stroke-opacity="0.6980392156862745" stroke-linecap="round" stroke-linejoin="round" stroke-miterlimit="10" stroke-width="2.5"/><path fill="none" stroke="rgb(204,0,0)" paint-order="fill stroke markers" d=" M 124.21099194313229 224.87878444080008 L 124.21099194313229 190.4925595819924" stroke-opacity="0.6980392156862745" stroke-linecap="round" stroke-linejoin="round" stroke-miterlimit="10" stroke-width="2.5"/><path fill="none" stroke="rgb(204,0,0)" paint-order="fill stroke markers" d=" M 319.0662661430413 190.4925595819924 L 353.4524910018488 190.4925595819924" stroke-opacity="0.6980392156862745" stroke-linecap="round" stroke-linejoin="round" stroke-miterlimit="10" stroke-width="2.5"/><path fill="none" stroke="rgb(204,0,0)" paint-order="fill stroke markers" d=" M 353.4524910018488 190.4925595819924 L 353.4524910018488 224.87878444080008" stroke-opacity="0.6980392156862745" stroke-linecap="round" stroke-linejoin="round" stroke-miterlimit="10" stroke-width="2.5"/><path fill="none" stroke="rgb(0,0,0)" paint-order="fill stroke markers" d=" M 754.6251143546028 477.04443340538955 L 983.8666134133193 477.04443340538955" stroke-opacity="0.6980392156862745" stroke-linecap="round" stroke-linejoin="round" stroke-miterlimit="10" stroke-width="2.5"/><path fill="rgb(204,0,0)" stroke="none" paint-order="stroke fill markers" d=" M 358.4524910018488 190.4925595819924 C 358.4524910018488 193.25398333114637 356.21391475100273 195.4925595819924 353.4524910018488 195.4925595819924 C 350.69106725269484 195.4925595819924 348.4524910018488 193.25398333114637 348.4524910018488 190.4925595819924 C 348.4524910018488 187.73113583283842 350.69106725269484 185.4925595819924 353.4524910018488 185.4925595819924 C 356.21391475100273 185.4925595819924 358.4524910018488 187.73113583283842 358.4524910018488 190.4925595819924 Z" fill-opacity="1"/><path fill="none" stroke="rgb(0,0,0)" paint-order="fill stroke markers" d=" M 358.4524910018488 190.4925595819924 C 358.4524910018488 193.25398333114637 356.21391475100273 195.4925595819924 353.4524910018488 195.4925595819924 C 350.69106725269484 195.4925595819924 348.4524910018488 193.25398333114637 348.4524910018488 190.4925595819924 C 348.4524910018488 187.73113583283842 350.69106725269484 185.4925595819924 353.4524910018488 185.4925595819924 C 356.21391475100273 185.4925595819924 358.4524910018488 187.73113583283842 358.4524910018488 190.4925595819924 Z" stroke-opacity="1" stroke-linecap="round" stroke-linejoin="round" stroke-miterlimit="10"/><path fill="rgb(204,0,0)" stroke="none" paint-order="stroke fill markers" d=" M 129.21099194313229 190.4925595819924 C 129.21099194313229 193.25398333114637 126.97241569228625 195.4925595819924 124.21099194313229 195.4925595819924 C 121.44956819397832 195.4925595819924 119.21099194313229 193.25398333114637 119.21099194313229 190.4925595819924 C 119.21099194313229 187.73113583283842 121.44956819397832 185.4925595819924 124.21099194313229 185.4925595819924 C 126.97241569228625 185.4925595819924 129.21099194313229 187.73113583283842 129.21099194313229 190.4925595819924 Z" fill-opacity="1"/><path fill="none" stroke="rgb(0,0,0)" paint-order="fill stroke markers" d=" M 129.21099194313229 190.4925595819924 C 129.21099194313229 193.25398333114637 126.97241569228625 195.4925595819924 124.21099194313229 195.4925595819924 C 121.44956819397832 195.4925595819924 119.21099194313229 193.25398333114637 119.21099194313229 190.4925595819924 C 119.21099194313229 187.73113583283842 121.44956819397832 185.4925595819924 124.21099194313229 185.4925595819924 C 126.97241569228625 185.4925595819924 129.21099194313229 187.73113583283842 129.21099194313229 190.4925595819924 Z" stroke-opacity="1" stroke-linecap="round" stroke-linejoin="round" stroke-miterlimit="10"/><path fill="rgb(204,0,0)" stroke="none" paint-order="stroke fill markers" d=" M 358.4524910018488 419.73405864071015 C 358.4524910018488 422.4954823898641 356.21391475100273 424.73405864071015 353.4524910018488 424.73405864071015 C 350.69106725269484 424.73405864071015 348.4524910018488 422.4954823898641 348.4524910018488 419.73405864071015 C 348.4524910018488 416.9726348915562 350.69106725269484 414.73405864071015 353.4524910018488 414.73405864071015 C 356.21391475100273 414.73405864071015 358.4524910018488 416.9726348915562 358.4524910018488 419.73405864071015 Z" fill-opacity="1"/><path fill="rgb(204,0,0)" stroke="none" paint-order="stroke fill markers" d=" M 129.21099194313229 419.73405864071015 C 129.21099194313229 422.4954823898641 126.97241569228625 424.73405864071015 124.21099194313229 424.73405864071015 C 121.44956819397832 424.73405864071015 119.21099194313229 422.4954823898641 119.21099194313229 419.73405864071015 C 119.21099194313229 416.9726348915562 121.44956819397832 414.73405864071015 124.21099194313229 414.73405864071015 C 126.97241569228625 414.73405864071015 129.21099194313229 416.9726348915562 129.21099194313229 419.73405864071015 Z" fill-opacity="1"/><path fill="none" stroke="rgb(0,0,0)" paint-order="fill stroke markers" d=" M 129.21099194313229 419.73405864071015 C 129.21099194313229 422.4954823898641 126.97241569228625 424.73405864071015 124.21099194313229 424.73405864071015 C 121.44956819397832 424.73405864071015 119.21099194313229 422.4954823898641 119.21099194313229 419.73405864071015 C 119.21099194313229 416.9726348915562 121.44956819397832 414.73405864071015 124.21099194313229 414.73405864071015 C 126.97241569228625 414.73405864071015 129.21099194313229 416.9726348915562 129.21099194313229 419.73405864071015 Z" stroke-opacity="1" stroke-linecap="round" stroke-linejoin="round" stroke-miterlimit="10"/><path fill="rgb(204,0,0)" stroke="none" paint-order="stroke fill markers" d=" M 129.21099194313229 648.9755576994278 C 129.21099194313229 651.7369814485818 126.97241569228625 653.9755576994278 124.21099194313229 653.9755576994278 C 121.44956819397832 653.9755576994278 119.21099194313229 651.7369814485818 119.21099194313229 648.9755576994278 C 119.21099194313229 646.2141339502738 121.44956819397832 643.9755576994278 124.21099194313229 643.9755576994278 C 126.97241569228625 643.9755576994278 129.21099194313229 646.2141339502738 129.21099194313229 648.9755576994278 Z" fill-opacity="1"/><path fill="none" stroke="rgb(0,0,0)" paint-order="fill stroke markers" d=" M 129.21099194313229 648.9755576994278 C 129.21099194313229 651.7369814485818 126.97241569228625 653.9755576994278 124.21099194313229 653.9755576994278 C 121.44956819397832 653.9755576994278 119.21099194313229 651.7369814485818 119.21099194313229 648.9755576994278 C 119.21099194313229 646.2141339502738 121.44956819397832 643.9755576994278 124.21099194313229 643.9755576994278 C 126.97241569228625 643.9755576994278 129.21099194313229 646.2141339502738 129.21099194313229 648.9755576994278 Z" stroke-opacity="1" stroke-linecap="round" stroke-linejoin="round" stroke-miterlimit="10"/><path fill="rgb(204,0,0)" stroke="none" paint-order="stroke fill markers" d=" M 358.4524910018488 648.9755576994278 C 358.4524910018488 651.7369814485818 356.21391475100273 653.9755576994278 353.4524910018488 653.9755576994278 C 350.69106725269484 653.9755576994278 348.4524910018488 651.7369814485818 348.4524910018488 648.9755576994278 C 348.4524910018488 646.2141339502738 350.69106725269484 643.9755576994278 353.4524910018488 643.9755576994278 C 356.21391475100273 643.9755576994278 358.4524910018488 646.2141339502738 358.4524910018488 648.9755576994278 Z" fill-opacity="1"/><path fill="none" stroke="rgb(0,0,0)" paint-order="fill stroke markers" d=" M 358.4524910018488 648.9755576994278 C 358.4524910018488 651.7369814485818 356.21391475100273 653.9755576994278 353.4524910018488 653.9755576994278 C 350.69106725269484 653.9755576994278 348.4524910018488 651.7369814485818 348.4524910018488 648.9755576994278 C 348.4524910018488 646.2141339502738 350.69106725269484 643.9755576994278 353.4524910018488 643.9755576994278 C 356.21391475100273 643.9755576994278 358.4524910018488 646.2141339502738 358.4524910018488 648.9755576994278 Z" stroke-opacity="1" stroke-linecap="round" stroke-linejoin="round" stroke-miterlimit="10"/><path fill="rgb(204,0,0)" stroke="none" paint-order="stroke fill markers" d=" M 587.6939900605653 190.4925595819924 C 587.6939900605653 193.25398333114637 585.4554138097193 195.4925595819924 582.6939900605653 195.4925595819924 C 579.9325663114113 195.4925595819924 577.6939900605653 193.25398333114637 577.6939900605653 190.4925595819924 C 577.6939900605653 187.73113583283842 579.9325663114113 185.4925595819924 582.6939900605653 185.4925595819924 C 585.4554138097193 185.4925595819924 587.6939900605653 187.73113583283842 587.6939900605653 190.4925595819924 Z" fill-opacity="1"/><path fill="none" stroke="rgb(0,0,0)" paint-order="fill stroke markers" d=" M 587.6939900605653 190.4925595819924 C 587.6939900605653 193.25398333114637 585.4554138097193 195.4925595819924 582.6939900605653 195.4925595819924 C 579.9325663114113 195.4925595819924 577.6939900605653 193.25398333114637 577.6939900605653 190.4925595819924 C 577.6939900605653 187.73113583283842 579.9325663114113 185.4925595819924 582.6939900605653 185.4925595819924 C 585.4554138097193 185.4925595819924 587.6939900605653 187.73113583283842 587.6939900605653 190.4925595819924 Z" stroke-opacity="1" stroke-linecap="round" stroke-linejoin="round" stroke-miterlimit="10"/><path fill="rgb(204,0,0)" stroke="none" paint-order="stroke fill markers" d=" M 587.6939900605653 419.73405864071015 C 587.6939900605653 422.4954823898641 585.4554138097193 424.73405864071015 582.6939900605653 424.73405864071015 C 579.9325663114113 424.73405864071015 577.6939900605653 422.4954823898641 577.6939900605653 419.73405864071015 C 577.6939900605653 416.9726348915562 579.9325663114113 414.73405864071015 582.6939900605653 414.73405864071015 C 585.4554138097193 414.73405864071015 587.6939900605653 416.9726348915562 587.6939900605653 419.73405864071015 Z" fill-opacity="1"/><path fill="none" stroke="rgb(0,0,0)" paint-order="fill stroke markers" d=" M 587.6939900605653 419.73405864071015 C 587.6939900605653 422.4954823898641 585.4554138097193 424.73405864071015 582.6939900605653 424.73405864071015 C 579.9325663114113 424.73405864071015 577.6939900605653 422.4954823898641 577.6939900605653 419.73405864071015 C 577.6939900605653 416.9726348915562 579.9325663114113 414.73405864071015 582.6939900605653 414.73405864071015 C 585.4554138097193 414.73405864071015 587.6939900605653 416.9726348915562 587.6939900605653 419.73405864071015 Z" stroke-opacity="1" stroke-linecap="round" stroke-linejoin="round" stroke-miterlimit="10"/><path fill="rgb(204,0,0)" stroke="none" paint-order="stroke fill markers" d=" M 530.3836152958863 677.6307450817675 C 530.3836152958863 680.3921688309215 528.1450390450403 682.6307450817675 525.3836152958863 682.6307450817675 C 522.6221915467323 682.6307450817675 520.3836152958863 680.3921688309215 520.3836152958863 677.6307450817675 C 520.3836152958863 674.8693213326135 522.6221915467323 672.6307450817675 525.3836152958863 672.6307450817675 C 528.1450390450403 672.6307450817675 530.3836152958863 674.8693213326135 530.3836152958863 677.6307450817675 Z" fill-opacity="1"/><path fill="none" stroke="rgb(0,0,0)" paint-order="fill stroke markers" d=" M 530.3836152958863 677.6307450817675 C 530.3836152958863 680.3921688309215 528.1450390450403 682.6307450817675 525.3836152958863 682.6307450817675 C 522.6221915467323 682.6307450817675 520.3836152958863 680.3921688309215 520.3836152958863 677.6307450817675 C 520.3836152958863 674.8693213326135 522.6221915467323 672.6307450817675 525.3836152958863 672.6307450817675 C 528.1450390450403 672.6307450817675 530.3836152958863 674.8693213326135 530.3836152958863 677.6307450817675 Z" stroke-opacity="1" stroke-linecap="round" stroke-linejoin="round" stroke-miterlimit="10"/><path fill="none" stroke="rgb(0,0,0)" paint-order="fill stroke markers" d=" M 988.8666134133193 477.04443340538955 L 981.3666134133193 481.37456042431177 L 981.3666134133193 472.71430638646734 L 988.8666134133193 477.04443340538955 Z" stroke-opacity="1" stroke-linecap="square" stroke-miterlimit="10" stroke-width="2.5"/><path fill="rgb(0,0,0)" stroke="none" paint-order="stroke fill markers" fill-rule="evenodd" d=" M 988.8666134133193 477.04443340538955 L 981.3666134133193 481.37456042431177 L 981.3666134133193 472.71430638646734 L 988.8666134133193 477.04443340538955 Z" fill-opacity="1"/><path fill="rgb(204,0,0)" stroke="none" paint-order="stroke fill markers" d=" M 1417.743207725465 621.5871980362508 C 1417.743207725465 624.3486217854048 1415.504631474619 626.5871980362508 1412.743207725465 626.5871980362508 C 1409.9817839763111 626.5871980362508 1407.743207725465 624.3486217854048 1407.743207725465 621.5871980362508 C 1407.743207725465 618.8257742870968 1409.9817839763111 616.5871980362508 1412.743207725465 616.5871980362508 C 1415.504631474619 616.5871980362508 1417.743207725465 618.8257742870968 1417.743207725465 621.5871980362508 Z" fill-opacity="1"/><path fill="none" stroke="rgb(0,0,0)" paint-order="fill stroke markers" d=" M 1417.743207725465 621.5871980362508 C 1417.743207725465 624.3486217854048 1415.504631474619 626.5871980362508 1412.743207725465 626.5871980362508 C 1409.9817839763111 626.5871980362508 1407.743207725465 624.3486217854048 1407.743207725465 621.5871980362508 C 1407.743207725465 618.8257742870968 1409.9817839763111 616.5871980362508 1412.743207725465 616.5871980362508 C 1415.504631474619 616.5871980362508 1417.743207725465 618.8257742870968 1417.743207725465 621.5871980362508 Z" stroke-opacity="1" stroke-linecap="round" stroke-linejoin="round" stroke-miterlimit="10"/><path fill="rgb(204,0,0)" stroke="none" paint-order="stroke fill markers" d=" M 1653.6669606835974 545.8168831230048 C 1653.6669606835974 548.5783068721588 1651.4283844327513 550.8168831230048 1648.6669606835974 550.8168831230048 C 1645.9055369344435 550.8168831230048 1643.6669606835974 548.5783068721588 1643.6669606835974 545.8168831230048 C 1643.6669606835974 543.0554593738508 1645.9055369344435 540.8168831230048 1648.6669606835974 540.8168831230048 C 1651.4283844327513 540.8168831230048 1653.6669606835974 543.0554593738508 1653.6669606835974 545.8168831230048 Z" fill-opacity="1"/><path fill="none" stroke="rgb(0,0,0)" paint-order="fill stroke markers" d=" M 1653.6669606835974 545.8168831230048 C 1653.6669606835974 548.5783068721588 1651.4283844327513 550.8168831230048 1648.6669606835974 550.8168831230048 C 1645.9055369344435 550.8168831230048 1643.6669606835974 548.5783068721588 1643.6669606835974 545.8168831230048 C 1643.6669606835974 543.0554593738508 1645.9055369344435 540.8168831230048 1648.6669606835974 540.8168831230048 C 1651.4283844327513 540.8168831230048 1653.6669606835974 543.0554593738508 1653.6669606835974 545.8168831230048 Z" stroke-opacity="1" stroke-linecap="round" stroke-linejoin="round" stroke-miterlimit="10"/><path fill="rgb(204,0,0)" stroke="none" paint-order="stroke fill markers" d=" M 1450.3179211116728 217.16594069408444 C 1450.3179211116728 219.92736444323842 1448.0793448608267 222.16594069408444 1445.3179211116728 222.16594069408444 C 1442.556497362519 222.16594069408444 1440.3179211116728 219.92736444323842 1440.3179211116728 217.16594069408444 C 1440.3179211116728 214.40451694493046 1442.556497362519 212.16594069408444 1445.3179211116728 212.16594069408444 C 1448.0793448608267 212.16594069408444 1450.3179211116728 214.40451694493046 1450.3179211116728 217.16594069408444 Z" fill-opacity="1"/><path fill="none" stroke="rgb(0,0,0)" paint-order="fill stroke markers" d=" M 1450.3179211116728 217.16594069408444 C 1450.3179211116728 219.92736444323842 1448.0793448608267 222.16594069408444 1445.3179211116728 222.16594069408444 C 1442.556497362519 222.16594069408444 1440.3179211116728 219.92736444323842 1440.3179211116728 217.16594069408444 C 1440.3179211116728 214.40451694493046 1442.556497362519 212.16594069408444 1445.3179211116728 212.16594069408444 C 1448.0793448608267 212.16594069408444 1450.3179211116728 214.40451694493046 1450.3179211116728 217.16594069408444 Z" stroke-opacity="1" stroke-linecap="round" stroke-linejoin="round" stroke-miterlimit="10"/></g></g></svg>