<svg version="1.1" xmlns="http://www.w3.org/2000/svg" xmlns:xlink="http://www.w3.org/1999/xlink" width="1904" height="947"><defs><clipPath id="IVogzrcEZiVB"><path fill="none" stroke="none" d=" M 0 0 L 1904 0 L 1904 947 L 0 947 L 0 0 Z"/></clipPath></defs><g transform="scale(1,1)" clip-path="url(#IVogzrcEZiVB)"><g><rect fill="rgb(255,255,255)" stroke="none" x="0" y="0" width="1904" height="947" fill-opacity="1"/><path fill="none" stroke="rgb(0,0,0)" paint-order="fill stroke markers" d=" M 700.3816457846001 315.49400487432536 C 657.7169391778568 315.49400487432536 623.1303607910986 364.40681310495904 623.1303607910986 424.74381982288446 C 623.1303607910986 485.0808265408099 657.7169391778568 533.9936347714436 700.3816457846001 533.9936347714436 C 743.0463523913434 533.9936347714436 777.6329307781016 485.0808265408099 777.6329307781016 424.74381982288446 C 777.6329307781016 364.40681310495904 743.0463523913434 315.49400487432536 700.3816457846001 315.49400487432536 Z" stroke-opacity="0.6980392156862745" stroke-linecap="round" stroke-linejoin="round" stroke-miterlimit="10" stroke-width="2.5"/><path fill="none" stroke="rgb(0,0,0)" paint-order="fill stroke markers" d=" M 970.7611432618478 315.4940048743292 C 928.096436655106 315.4940048743292 893.509858268349 364.40681310496115 893.509858268349 424.74381982288446 C 893.509858268349 485.0808265408078 928.096436655106 533.9936347714397 970.7611432618478 533.9936347714397 C 1013.4258498685896 533.9936347714397 1048.0124282553465 485.0808265408078 1048.0124282553465 424.74381982288446 C 1048.0124282553465 364.40681310496115 1013.4258498685896 315.4940048743292 970.7611432618478 315.4940048743292 Z" stroke-opacity="0.6980392156862745" stroke-linecap="round" stroke-linejoin="round" stroke-miterlimit="10" stroke-width="2.5"/><path fill="none" stroke="rgb(0,0,0)" paint-order="fill stroke markers" d=" M 1886.5057525986024 424.74381982288446 C 1886.5057525986024 329.3426356101246 1770.4988420257312 252.00469522821027 1627.3970657065915 252.00469522821027 C 1484.295289387452 252.00469522821027 1368.2883788145807 329.3426356101246 1368.2883788145807 424.74381982288446 C 1368.2883788145807 520.1450040356443 1484.295289387452 597.4829444175587 1627.3970657065915 597.4829444175587 C 1770.4988420257312 597.4829444175587 1886.5057525986024 520.1450040356443 1886.5057525986024 424.74381982288446 Z" stroke-opacity="0.6980392156862745" stroke-linecap="round" stroke-linejoin="round" stroke-miterlimit="10" stroke-width="2.5"/><path fill="none" stroke="rgb(0,0,0)" paint-order="fill stroke markers" d=" M 1453.581674471218 424.74381982288446 C 1495.078779148169 478.7299102188849 1559.3051597792721 510.3693161359556 1627.3970657065915 510.36931613595567 C 1695.488971633911 510.36931613595567 1759.7153522650142 478.7299102188849 1801.2124569419648 424.7438198228846" stroke-opacity="0.6980392156862745" stroke-linecap="round" stroke-linejoin="round" stroke-miterlimit="10" stroke-width="2.5"/><path fill="none" stroke="rgb(0,0,0)" paint-order="fill stroke markers" d=" M 1781.8996356935904 424.74381982288446 C 1746.9883729287783 373.7690398295264 1689.1807566226014 343.2945382037782 1627.3970657065918 343.2945382037782 C 1565.6133747905822 343.2945382037782 1507.8057584844053 373.7690398295264 1472.8944957195931 424.74381982288446" stroke-opacity="0.6980392156862745" stroke-linecap="round" stroke-linejoin="round" stroke-miterlimit="10" stroke-width="2.5"/><path fill="none" stroke="rgb(0,0,0)" paint-order="fill stroke markers" d=" M 43.74572333985634 270.24124983588564 L 352.7508633138534 270.24124983588564" stroke-opacity="0.6980392156862745" stroke-linecap="round" stroke-linejoin="round" stroke-miterlimit="10" stroke-width="2.5"/><path fill="none" stroke="rgb(0,0,0)" paint-order="fill stroke markers" d=" M 352.7508633138534 270.24124983588564 L 352.7508633138534 579.2463898098833" stroke-opacity="0.6980392156862745" stroke-linecap="round" stroke-linejoin="round" stroke-miterlimit="10" stroke-width="2.5"/><path fill="none" stroke="rgb(0,0,0)" paint-order="fill stroke markers" d=" M 352.7508633138534 579.2463898098833 L 43.74572333985634 579.2463898098833" stroke-opacity="0.6980392156862745" stroke-linecap="round" stroke-linejoin="round" stroke-miterlimit="10" stroke-width="2.5"/><path fill="none" stroke="rgb(0,0,0)" paint-order="fill stroke markers" d=" M 43.74572333985634 579.2463898098833 L 43.74572333985634 270.24124983588564" stroke-opacity="0.6980392156862745" stroke-linecap="round" stroke-linejoin="round" stroke-miterlimit="10" stroke-width="2.5"/><path fill="none" stroke="rgb(0,0,0)" paint-order="fill stroke markers" d=" M 430.00214830735285 424.74381982288446 L 584.5047182943513 424.74381982288446" stroke-opacity="0.6980392156862745" stroke-linecap="round" stroke-linejoin="round" stroke-miterlimit="10" stroke-width="2.5"/><path fill="none" stroke="rgb(0,0,0)" paint-order="fill stroke markers" d=" M 700.0283165340375 315.4951475967388 L 970.833942166375 315.4940533840835" stroke-opacity="0.6980392156862745" stroke-linecap="round" stroke-linejoin="round" stroke-miterlimit="10" stroke-width="2.5"/><path fill="none" stroke="rgb(0,0,0)" paint-order="fill stroke markers" d=" M 700.6029928832272 533.9931863071724 L 970.2592400229332 533.9913289595742" stroke-opacity="0.6980392156862745" stroke-linecap="round" stroke-linejoin="round" stroke-miterlimit="10" stroke-width="2.5"/><path fill="none" stroke="rgb(0,0,0)" paint-order="fill stroke markers" d=" M 1125.2637132488462 424.74381982288446 L 1279.7662832358449 424.74381982288446" stroke-opacity="0.6980392156862745" stroke-linecap="round" stroke-linejoin="round" stroke-miterlimit="10" stroke-width="2.5"/><path fill="none" stroke="rgb(0,0,0)" paint-order="fill stroke markers" d=" M 203.248293326855 270.24124983588564 L 195.748293326855 274.57137685480785 L 195.748293326855 265.9111228169634 L 203.248293326855 270.24124983588564 Z" stroke-opacity="1" stroke-linecap="square" stroke-miterlimit="10" stroke-width="2.5"/><path fill="rgb(0,0,0)" stroke="none" paint-order="stroke fill markers" fill-rule="evenodd" d=" M 203.248293326855 270.24124983588564 L 195.748293326855 274.57137685480785 L 195.748293326855 265.9111228169634 L 203.248293326855 270.24124983588564 Z" fill-opacity="1"/><path fill="none" stroke="rgb(0,0,0)" paint-order="fill stroke markers" d=" M 352.7508633138534 419.74381982288446 L 357.0809903327756 427.24381982288446 L 348.4207362949312 427.24381982288446 L 352.7508633138534 419.74381982288446 Z" stroke-opacity="1" stroke-linecap="square" stroke-miterlimit="10" stroke-width="2.5"/><path fill="rgb(0,0,0)" stroke="none" paint-order="stroke fill markers" fill-rule="evenodd" d=" M 352.7508633138534 419.74381982288446 L 357.0809903327756 427.24381982288446 L 348.4207362949312 427.24381982288446 L 352.7508633138534 419.74381982288446 Z" fill-opacity="1"/><path fill="none" stroke="rgb(0,0,0)" paint-order="fill stroke markers" d=" M 203.248293326855 579.2463898098833 L 195.748293326855 583.5765168288056 L 195.748293326855 574.9162627909611 L 203.248293326855 579.2463898098833 Z" stroke-opacity="1" stroke-linecap="square" stroke-miterlimit="10" stroke-width="2.5"/><path fill="rgb(0,0,0)" stroke="none" paint-order="stroke fill markers" fill-rule="evenodd" d=" M 203.248293326855 579.2463898098833 L 195.748293326855 583.5765168288056 L 195.748293326855 574.9162627909611 L 203.248293326855 579.2463898098833 Z" fill-opacity="1"/><path fill="none" stroke="rgb(0,0,0)" paint-order="fill stroke markers" d=" M 43.74572333985634 419.74381982288446 L 48.07585035877853 427.24381982288446 L 39.41559632093415 427.24381982288446 L 43.74572333985634 419.74381982288446 Z" stroke-opacity="1" stroke-linecap="square" stroke-miterlimit="10" stroke-width="2.5"/><path fill="rgb(0,0,0)" stroke="none" paint-order="stroke fill markers" fill-rule="evenodd" d=" M 43.74572333985634 419.74381982288446 L 48.07585035877853 427.24381982288446 L 39.41559632093415 427.24381982288446 L 43.74572333985634 419.74381982288446 Z" fill-opacity="1"/><path fill="none" stroke="rgb(0,0,0)" paint-order="fill stroke markers" d=" M 589.5047182943513 424.74381982288446 L 582.0047182943513 429.0739468418067 L 582.0047182943513 420.41369280396225 L 589.5047182943513 424.74381982288446 Z" stroke-opacity="1" stroke-linecap="square" stroke-miterlimit="10" stroke-width="2.5"/><path fill="rgb(0,0,0)" stroke="none" paint-order="stroke fill markers" fill-rule="evenodd" d=" M 589.5047182943513 424.74381982288446 L 582.0047182943513 429.0739468418067 L 582.0047182943513 420.41369280396225 L 589.5047182943513 424.74381982288446 Z" fill-opacity="1"/><path fill="none" stroke="rgb(0,0,0)" paint-order="fill stroke markers" d=" M 1284.7662832358449 424.74381982288446 L 1277.2662832358449 429.0739468418067 L 1277.2662832358449 420.41369280396225 L 1284.7662832358449 424.74381982288446 Z" stroke-opacity="1" stroke-linecap="square" stroke-miterlimit="10" stroke-width="2.5"/><path fill="rgb(0,0,0)" stroke="none" paint-order="stroke fill markers" fill-rule="evenodd" d=" M 1284.7662832358449 424.74381982288446 L 1277.2662832358449 429.0739468418067 L 1277.2662832358449 420.41369280396225 L 1284.7662832358449 424.74381982288446 Z" fill-opacity="1"/></g></g></svg>